<?xml version="1.0" encoding="utf-8"?>
<!-- Generator: Adobe Illustrator 22.1.0, SVG Export Plug-In . SVG Version: 6.00 Build 0)  -->
<svg version="1.1" xmlns="http://www.w3.org/2000/svg" xmlns:xlink="http://www.w3.org/1999/xlink" x="0px" y="0px"
	 viewBox="0 0 176.5 85.1" style="enable-background:new 0 0 176.5 85.1;" xml:space="preserve">
<style type="text/css">
	.st0{display:none;}
	.st1{display:inline;fill:#6B5AA6;stroke:#634A20;stroke-miterlimit:10;}
	.st2{display:inline;fill:none;stroke:#000000;stroke-width:0.75;stroke-miterlimit:10;}
	.st3{fill:none;stroke:#634A20;stroke-miterlimit:10;}
	.st4{fill:none;stroke:#D8A345;stroke-miterlimit:10;}
	.st5{fill:none;stroke:#936F2E;stroke-miterlimit:10;}
</style>
<g id="Layer_3" class="st0">
</g>
<g id="Layer_1" class="st0">
</g>
<g id="Layer_2">
	<polyline class="st3" points="18.4,67.3 56,57.9 32.6,83.3 73.7,73 65.7,80.3 135.8,62.8 	"/>
	<g>
		<path class="st4" d="M13.1,0c0,3,2.4,5.4,5.4,5.4S23.9,3,23.9,0"/>
		<polyline class="st4" points="175.2,0 175.2,5.5 162,5.5 162,26.4 152.8,26.4 152.8,12.5 143,12.5 143,29.9 126.8,29.9 126.8,6.2 
			55.3,6.2 40.4,26.4 18.8,26.4 2,0 		"/>
	</g>
	<polyline class="st5" points="124.4,34.5 150.3,41.3 115.9,50.2 120.1,43.6 47.7,43.6 39.9,51.7 9.9,51.7 18.3,41.3 12.9,34.5 	"/>
</g>
</svg>
